<svg xmlns="http://www.w3.org/2000/svg" viewBox="0 0 296 296" width="296" height="296"><g transform="translate(-110 -179)"><path fill="#96700D" opacity="1.000000" stroke="none" d=" M187.000092,203.685547   C198.495529,203.686768 209.491043,203.715256 220.486282,203.671814   C223.451828,203.660110 226.317886,203.916672 227.743088,206.933807   C229.101501,209.809540 228.073257,212.320465 226.158325,214.751373   C222.524185,219.364777 221.945892,224.567551 224.690918,229.722839   C227.445053,234.895264 232.021286,237.266037 237.965607,236.719452   C243.288269,236.230042 247.026047,233.476639 248.950287,228.554550   C250.852112,223.689804 250.022812,219.028320 246.938416,214.860275   C245.154724,212.449875 243.822983,209.952759 245.260590,207.036591   C246.825714,203.861725 249.891495,203.771317 253.002563,203.653442   C265.790619,203.168915 278.527710,202.202072 291.303772,204.584854   C323.676056,210.622375 350.694702,238.647354 355.415466,271.219604   C359.132385,296.865448 352.724365,319.754944 335.443054,338.764771   C325.817505,349.353088 320.415588,361.282745 317.310638,374.759277   C317.086761,375.730988 317.113708,376.902802 316.563019,377.634674   C311.510040,384.350067 313.179535,392.087311 313.320038,399.497131   C313.484711,408.184174 310.548370,414.771912 302.340790,418.432953   C300.294159,419.345856 299.442932,420.736176 299.268127,423.044098   C298.056946,439.035583 286.211700,450.165222 270.523315,450.227020   C254.247498,450.291077 242.281998,439.509827 240.894135,423.182709   C240.638214,420.172089 239.417923,418.773560 236.854935,417.703278   C231.500427,415.467224 228.438263,411.246155 227.566574,405.589630   C226.626022,399.486420 226.388916,393.343872 227.812012,387.254181   C228.036087,386.295319 228.673965,385.335175 228.047989,384.384399   C222.803146,376.418060 222.353409,366.742645 218.674011,358.181824   C215.769409,351.423615 211.070541,347.994354 204.030945,348.513641   C192.539688,349.361267 181.073837,347.887665 169.583740,348.720520   C160.905716,349.349579 159.038498,347.281158 159.019302,338.495728   C158.989822,325.001495 158.997742,311.507019 159.046021,298.012817   C159.080139,288.480927 163.312988,286.106659 171.590256,290.900726   C178.695175,295.015808 186.766083,293.077972 190.678009,286.317749   C194.491165,279.728271 192.390366,271.662506 185.618500,267.774323   C180.887466,265.057861 176.045120,265.240326 171.481110,268.341400   C168.667023,270.253479 165.937454,272.263733 162.350006,270.245483   C159.017288,268.370483 159.041916,265.109680 159.036850,261.917694   C159.010635,245.424683 158.973709,228.931503 159.024719,212.438660   C159.046494,205.395004 160.841690,203.723480 168.007553,203.693497   C174.171646,203.667709 180.335907,203.686646 187.000092,203.685547  M306.905090,220.622925   C291.766876,212.462128 275.623230,212.105911 258.508484,213.807159   C260.863037,221.981110 260.837769,229.258377 256.626465,236.118011   C252.333267,243.111053 245.835312,246.429581 237.977432,246.990082   C231.621780,247.443436 225.748734,245.496124 220.900009,241.221085   C212.610092,233.912018 211.527786,224.531586 214.075836,214.430496   C212.912537,214.021759 212.296021,213.619034 211.676941,213.615051   C198.688736,213.531555 185.700226,213.489395 172.711746,213.448303   C169.240143,213.437317 169.324966,215.919510 169.325180,218.332565   C169.326187,229.658798 169.302765,240.985123 169.352356,252.311127   C169.359314,253.897964 168.849442,255.664734 170.652847,257.384949   C178.023483,254.965240 185.463486,255.302353 192.265594,259.926514   C199.095444,264.569519 202.564285,271.228790 202.757446,279.364716   C202.918732,286.158203 200.346817,292.020752 195.287506,296.718689   C187.962387,303.520508 179.393661,304.197449 170.434280,301.536804   C169.048294,303.180542 169.339066,304.732025 169.335129,306.185883   C169.310791,315.180176 169.532272,324.181183 169.243256,333.166138   C169.097641,337.692932 170.869522,338.885773 175.095200,338.783661   C184.750183,338.550354 194.414658,338.698334 204.075241,338.710175   C216.657379,338.725555 223.212112,342.949066 227.806824,354.646545   C230.112396,360.516266 231.843338,366.623932 233.604919,372.690521   C234.692703,376.436646 236.765076,378.217133 240.778030,378.099792   C247.102051,377.914886 253.439270,377.894989 259.762695,378.081879   C263.679291,378.197632 265.050629,376.627472 264.977600,372.774994   C264.813538,364.117401 264.972473,355.453918 264.976990,346.792816   C264.979004,342.926331 265.204651,338.870178 270.316040,338.928467   C275.119843,338.983246 275.322021,342.845245 275.304565,346.557098   C275.262207,355.551208 275.371399,364.546722 275.254272,373.539490   C275.212860,376.718597 276.405548,378.102234 279.620453,378.056488   C285.948181,377.966400 292.290955,377.798553 298.603455,378.126465   C303.992340,378.406433 306.930237,376.546692 307.963226,371.008820   C310.839844,355.586365 318.084137,342.627502 328.662170,330.820740   C343.463959,314.299622 349.006653,294.108551 345.170654,272.271332   C341.136261,249.305191 328.270325,232.077606 306.905090,220.622925  M272.500000,388.301392   C264.690369,388.298187 256.880737,388.281372 249.071136,388.294830   C236.203110,388.317017 237.261551,387.004181 237.354416,400.637573   C237.398315,407.080475 240.076889,409.652740 246.529388,409.674652   C260.154510,409.720886 273.787994,409.392029 287.403198,409.762360   C304.191711,410.219055 302.941650,407.493958 302.942719,393.261139   C302.942993,389.696075 301.612579,388.179657 297.924774,388.254730   C289.786255,388.420380 281.641968,388.304382 272.500000,388.301392  M258.240051,436.358917   C263.544922,440.521667 269.696869,440.540955 275.821747,439.458649   C282.687347,438.245422 288.825836,430.826630 288.991364,424.368225   C289.055054,421.884094 288.411011,420.049103 285.538879,419.997803   C275.596008,419.820160 265.652832,419.648743 255.709045,419.535065   C251.984207,419.492493 250.877487,421.630737 251.256897,425.061493   C251.766891,429.673126 254.347763,432.989319 258.240051,436.358917  z" />
</g></svg>