<svg xmlns:ns0="http://www.w3.org/2000/svg" xmlns="http://www.w3.org/2000/svg" viewBox="0 0 1024 672"><ns0:path fill="#FFFFFF" opacity="0.25" stroke="none" d=" M187.000092,203.685547   C198.495529,203.686768 209.491043,203.715256 220.486282,203.671814   C223.451828,203.660110 226.317886,203.916672 227.743088,206.933807   C229.101501,209.809540 228.073257,212.320465 226.158325,214.751373   C222.524185,219.364777 221.945892,224.567551 224.690918,229.722839   C227.445053,234.895264 232.021286,237.266037 237.965607,236.719452   C243.288269,236.230042 247.026047,233.476639 248.950287,228.554550   C250.852112,223.689804 250.022812,219.028320 246.938416,214.860275   C245.154724,212.449875 243.822983,209.952759 245.260590,207.036591   C246.825714,203.861725 249.891495,203.771317 253.002563,203.653442   C265.790619,203.168915 278.527710,202.202072 291.303772,204.584854   C323.676056,210.622375 350.694702,238.647354 355.415466,271.219604   C359.132385,296.865448 352.724365,319.754944 335.443054,338.764771   C325.817505,349.353088 320.415588,361.282745 317.310638,374.759277   C317.086761,375.730988 317.113708,376.902802 316.563019,377.634674   C311.510040,384.350067 313.179535,392.087311 313.320038,399.497131   C313.484711,408.184174 310.548370,414.771912 302.340790,418.432953   C300.294159,419.345856 299.442932,420.736176 299.268127,423.044098   C298.056946,439.035583 286.211700,450.165222 270.523315,450.227020   C254.247498,450.291077 242.281998,439.509827 240.894135,423.182709   C240.638214,420.172089 239.417923,418.773560 236.854935,417.703278   C231.500427,415.467224 228.438263,411.246155 227.566574,405.589630   C226.626022,399.486420 226.388916,393.343872 227.812012,387.254181   C228.036087,386.295319 228.673965,385.335175 228.047989,384.384399   C222.803146,376.418060 222.353409,366.742645 218.674011,358.181824   C215.769409,351.423615 211.070541,347.994354 204.030945,348.513641   C192.539688,349.361267 181.073837,347.887665 169.583740,348.720520   C160.905716,349.349579 159.038498,347.281158 159.019302,338.495728   C158.989822,325.001495 158.997742,311.507019 159.046021,298.012817   C159.080139,288.480927 163.312988,286.106659 171.590256,290.900726   C178.695175,295.015808 186.766083,293.077972 190.678009,286.317749   C194.491165,279.728271 192.390366,271.662506 185.618500,267.774323   C180.887466,265.057861 176.045120,265.240326 171.481110,268.341400   C168.667023,270.253479 165.937454,272.263733 162.350006,270.245483   C159.017288,268.370483 159.041916,265.109680 159.036850,261.917694   C159.010635,245.424683 158.973709,228.931503 159.024719,212.438660   C159.046494,205.395004 160.841690,203.723480 168.007553,203.693497   C174.171646,203.667709 180.335907,203.686646 187.000092,203.685547  M306.905090,220.622925   C291.766876,212.462128 275.623230,212.105911 258.508484,213.807159   C260.863037,221.981110 260.837769,229.258377 256.626465,236.118011   C252.333267,243.111053 245.835312,246.429581 237.977432,246.990082   C231.621780,247.443436 225.748734,245.496124 220.900009,241.221085   C212.610092,233.912018 211.527786,224.531586 214.075836,214.430496   C212.912537,214.021759 212.296021,213.619034 211.676941,213.615051   C198.688736,213.531555 185.700226,213.489395 172.711746,213.448303   C169.240143,213.437317 169.324966,215.919510 169.325180,218.332565   C169.326187,229.658798 169.302765,240.985123 169.352356,252.311127   C169.359314,253.897964 168.849442,255.664734 170.652847,257.384949   C178.023483,254.965240 185.463486,255.302353 192.265594,259.926514   C199.095444,264.569519 202.564285,271.228790 202.757446,279.364716   C202.918732,286.158203 200.346817,292.020752 195.287506,296.718689   C187.962387,303.520508 179.393661,304.197449 170.434280,301.536804   C169.048294,303.180542 169.339066,304.732025 169.335129,306.185883   C169.310791,315.180176 169.532272,324.181183 169.243256,333.166138   C169.097641,337.692932 170.869522,338.885773 175.095200,338.783661   C184.750183,338.550354 194.414658,338.698334 204.075241,338.710175   C216.657379,338.725555 223.212112,342.949066 227.806824,354.646545   C230.112396,360.516266 231.843338,366.623932 233.604919,372.690521   C234.692703,376.436646 236.765076,378.217133 240.778030,378.099792   C247.102051,377.914886 253.439270,377.894989 259.762695,378.081879   C263.679291,378.197632 265.050629,376.627472 264.977600,372.774994   C264.813538,364.117401 264.972473,355.453918 264.976990,346.792816   C264.979004,342.926331 265.204651,338.870178 270.316040,338.928467   C275.119843,338.983246 275.322021,342.845245 275.304565,346.557098   C275.262207,355.551208 275.371399,364.546722 275.254272,373.539490   C275.212860,376.718597 276.405548,378.102234 279.620453,378.056488   C285.948181,377.966400 292.290955,377.798553 298.603455,378.126465   C303.992340,378.406433 306.930237,376.546692 307.963226,371.008820   C310.839844,355.586365 318.084137,342.627502 328.662170,330.820740   C343.463959,314.299622 349.006653,294.108551 345.170654,272.271332   C341.136261,249.305191 328.270325,232.077606 306.905090,220.622925  M272.500000,388.301392   C264.690369,388.298187 256.880737,388.281372 249.071136,388.294830   C236.203110,388.317017 237.261551,387.004181 237.354416,400.637573   C237.398315,407.080475 240.076889,409.652740 246.529388,409.674652   C260.154510,409.720886 273.787994,409.392029 287.403198,409.762360   C304.191711,410.219055 302.941650,407.493958 302.942719,393.261139   C302.942993,389.696075 301.612579,388.179657 297.924774,388.254730   C289.786255,388.420380 281.641968,388.304382 272.500000,388.301392  M258.240051,436.358917   C263.544922,440.521667 269.696869,440.540955 275.821747,439.458649   C282.687347,438.245422 288.825836,430.826630 288.991364,424.368225   C289.055054,421.884094 288.411011,420.049103 285.538879,419.997803   C275.596008,419.820160 265.652832,419.648743 255.709045,419.535065   C251.984207,419.492493 250.877487,421.630737 251.256897,425.061493   C251.766891,429.673126 254.347763,432.989319 258.240051,436.358917  z" />



<ns0:path fill="#96700D" opacity="0.25" stroke="none" d=" M401.023132,191.461935   C401.207458,194.062424 401.307983,196.254463 401.308197,198.446487   C401.316895,284.488305 401.316406,370.530137 401.317078,456.571970   C401.317078,457.355586 401.418365,458.153965 401.294037,458.919803   C401.023712,460.585118 402.168457,463.333950 399.037109,463.190289   C396.190308,463.059667 396.898315,460.414258 396.895264,458.686303   C396.831512,422.483101 396.810028,386.279755 396.809662,350.076466   C396.809113,298.827562 396.831207,247.578673 396.851929,196.329783   C396.852478,194.921778 396.704010,193.457380 397.054260,192.118735   C397.613525,189.981166 398.906189,189.148407 401.023132,191.461935  z" />
<ns0:path fill="#FFFFFF" opacity="0.25" stroke="none" d=" M641.032593,344.643781   C641.015747,350.781782 641.064026,356.432844 640.954163,362.080793   C640.914124,364.139417 641.346802,366.650709 638.354065,367.276777   C635.576233,367.857923 633.601013,366.856641 632.145935,364.346113   C629.236572,359.326002 626.154480,354.405988 622.053284,349.508985   C622.053284,353.952955 622.047607,358.396924 622.055481,362.840894   C622.060120,365.463880 621.412292,367.485609 618.184875,367.353010   C615.282471,367.233777 614.720703,365.411054 614.736511,362.955396   C614.786865,355.145490 614.748901,347.335065 614.776428,339.524946   C614.783447,337.533338 614.609192,335.384687 617.392212,334.928480   C619.875610,334.521345 621.941650,334.908704 623.384094,337.311079   C626.515564,342.526990 629.764526,347.672376 633.792175,354.182783   C633.792175,348.234174 633.861572,343.820447 633.766357,339.410291   C633.708374,336.728071 634.276367,334.785505 637.487549,334.834852   C640.415161,334.879835 641.044006,336.739179 641.024841,339.170362   C641.011719,340.831953 641.030640,342.493818 641.032593,344.643781  z" />
<ns0:path fill="#96700D" opacity="0.25" stroke="none" d=" M568.625427,348.675031   C570.234558,348.815259 571.415344,348.841901 572.536011,349.115095   C573.959229,349.461988 574.965393,350.389814 574.703735,351.974958   C574.481689,353.320417 573.331299,353.772382 572.099792,353.863752   C570.939270,353.949842 569.770935,353.955121 568.606079,353.955213   C538.461609,353.957197 508.317169,353.953992 478.172729,353.950757   C477.340027,353.950696 476.504059,353.986036 475.675323,353.925886   C473.915619,353.798078 471.606781,354.234205 471.588257,351.523115   C471.572540,349.226209 473.602600,349.226118 475.259857,349.110517   C477.914764,348.925336 480.574829,348.695508 483.232941,348.692640   C511.545380,348.661817 539.857849,348.672040 568.625427,348.675031  z" />
<ns0:path fill="#96700D" opacity="0.25" stroke="none" d=" M842.722351,353.978376   C812.597229,353.964185 782.940247,353.951459 753.283203,353.937818   C751.783752,353.937116 750.281372,353.985090 748.785522,353.909284   C747.006409,353.819074 744.709961,354.139753 744.818481,351.396406   C744.910706,349.065931 746.979553,349.233259 748.614014,349.191541   C756.937805,348.978956 765.262390,348.682600 773.587524,348.651929   C795.913330,348.569623 818.239502,348.607618 840.565552,348.598218   C841.398621,348.597852 842.237488,348.538038 843.063660,348.614332   C845.302002,348.821149 848.446472,348.329114 848.348450,351.623151   C848.255859,354.733503 845.185974,353.712964 842.722351,353.978376  z" />
<ns0:path fill="#FFFFFF" opacity="0.25" stroke="none" d=" M693.690186,353.888227   C692.378357,353.479475 691.424194,353.182661 690.489685,352.833448   C684.674866,350.660322 682.044434,346.836347 683.058105,342.052961   C684.053406,337.356336 688.635071,334.250837 694.485352,334.307477   C700.926941,334.369855 704.371582,337.098005 705.323792,343.117444   C702.780823,344.468152 700.398499,345.660413 698.256592,342.222822   C697.285522,340.664503 695.486084,340.487806 693.769043,340.627515   C692.180481,340.756788 690.762695,341.308179 690.479309,343.108503   C690.236938,344.648664 691.158936,345.687910 692.486267,346.205457   C695.271790,347.291517 698.124451,348.204420 700.919250,349.267835   C704.791992,350.741529 706.628723,353.528028 706.536255,357.743848   C706.445923,361.861097 704.622925,364.691419 700.945679,366.421918   C692.562744,370.367017 683.331177,366.244794 682.618896,357.983839   C685.293274,356.606183 687.740234,355.942823 689.707214,359.304822   C690.616028,360.858228 692.242432,361.404981 693.997559,361.430006   C696.035156,361.459058 698.202332,361.472730 698.943604,359.044782   C699.723694,356.489759 697.849670,355.494031 695.929382,354.667066   C695.319153,354.404279 694.681824,354.204511 693.690186,353.888227  z" />
<ns0:path fill="#FFFFFF" opacity="0.25" stroke="none" d=" M436.546265,310.008222   C433.877319,304.698682 435.442719,299.313520 435.045288,294.075757   C434.819427,291.098920 434.955353,288.084485 435.089447,285.094221   C435.174316,283.201063 434.738403,280.862897 437.559784,280.370923   C439.977539,279.949293 441.698669,280.920820 442.952820,283.028882   C445.896851,287.977521 448.923401,292.877088 452.674011,299.041425   C452.674011,293.336957 452.628937,289.075727 452.694427,284.816205   C452.723969,282.898115 452.295807,280.545148 455.351044,280.431562   C458.304321,280.321760 458.378815,282.455671 458.383698,284.520215   C458.401001,291.842390 458.388947,299.164747 458.354553,306.486860   C458.346802,308.141401 458.476929,309.967481 456.215271,310.395673   C454.236755,310.770215 452.569305,310.242597 451.476532,308.457136   C448.361084,303.366895 445.268616,298.262617 441.271362,293.171491   C441.271362,297.498182 441.229584,301.825422 441.285614,306.151380   C441.324951,309.187940 440.453949,311.105024 436.546265,310.008222  z" />
<ns0:path fill="#FFFFFF" opacity="0.25" stroke="none" d=" M839.768799,309.460981   C838.203796,300.695692 839.081360,292.208936 838.975464,283.743543   C838.956055,282.193494 839.351990,280.709455 841.279358,280.414136   C843.425415,280.085309 845.228821,280.560377 846.436157,282.555555   C849.536194,287.678571 852.661499,292.786329 856.616455,299.278638   C856.616455,293.645673 856.557922,289.348920 856.641785,285.054914   C856.681885,283.003034 856.123840,280.355878 859.556763,280.428785   C862.548889,280.492292 862.298462,282.793714 862.309448,284.765455   C862.349365,291.926679 862.352417,299.088361 862.321228,306.249647   C862.314148,307.873395 862.571838,309.787946 860.375916,310.323041   C858.227173,310.846631 856.424561,310.208356 855.226746,308.240674   C852.204407,303.275617 849.186218,298.307966 845.195251,293.393659   C845.195251,297.727766 845.227783,302.062147 845.185242,306.395856   C845.149841,310.000867 843.507385,311.299512 839.768799,309.460981  z" />
<ns0:path fill="#FFFFFF" opacity="0.25" stroke="none" d=" M665.550110,367.663770   C655.029175,367.982526 649.932007,363.554456 648.846741,353.579023   C647.765930,343.644819 652.153870,336.293836 660.169434,334.610517   C666.005981,333.384748 672.233459,335.843275 674.437744,340.375257   C675.284546,342.116376 676.587158,344.392286 673.985352,345.507642   C672.206665,346.270063 669.661133,347.066511 668.338501,344.293806   C667.011292,341.511365 664.844971,340.293012 661.846863,340.890455   C658.547485,341.547925 657.576111,344.131605 656.879456,347.055585   C656.037537,350.589033 656.108948,354.045423 657.442261,357.365552   C659.317871,362.035505 665.257935,363.070264 667.753357,358.840589   C669.797913,355.375043 672.028687,355.982984 674.787292,356.704298   C675.644775,362.525129 673.392700,365.285261 665.550110,367.663770  z" />
<ns0:path fill="#FFFFFF" opacity="0.25" stroke="none" d=" M589.904785,282.894514   C593.331543,279.304609 603.989807,279.322980 607.956299,282.461133   C612.089172,285.730939 612.399719,290.897047 608.481018,296.637433   C607.248657,298.442609 607.283203,299.851423 608.134094,301.665479   C609.315186,304.183546 611.169617,306.422071 611.569214,309.613386   C607.777283,311.635725 605.692383,310.107160 603.749878,306.687696   C602.200195,303.959760 602.136536,299.562208 597.339905,299.491590   C595.475159,301.776411 596.444214,304.361890 596.258972,306.737806   C596.101990,308.751264 595.739014,310.405012 593.299316,310.500257   C590.715576,310.601118 589.780762,309.125257 589.787598,306.757581   C589.810242,298.957990 589.821106,291.158399 589.904785,282.894514  M604.557129,288.498548   C603.364014,285.517499 600.851135,285.711988 598.350098,285.954511   C596.966003,286.088758 596.264893,287.049848 596.377319,288.315290   C596.560303,290.374860 594.995850,293.429761 598.409424,293.977796   C601.758606,294.515546 604.760010,293.683820 604.557129,288.498548  z" />
<ns0:path fill="#FFFFFF" opacity="0.25" stroke="none" d=" M810.766785,283.331068   C815.232788,279.336957 820.054749,279.013410 824.961792,281.041639   C829.974731,283.113630 831.738220,287.610670 832.225891,292.631025   C832.563293,296.104688 832.413696,299.587781 831.147705,302.930219   C829.251465,307.936536 825.138367,310.777723 819.651550,310.833356   C814.520508,310.885389 810.157410,308.239179 808.352722,303.416089   C805.776001,296.529584 805.909851,289.788953 810.766785,283.331068  M824.409363,302.231641   C826.220154,298.450788 826.098022,294.464521 825.330383,290.528577   C824.782166,287.717817 823.086060,285.751569 819.897888,285.607587   C816.741211,285.465009 814.945923,287.121076 814.036072,289.956281   C812.941589,293.367048 812.890015,296.855421 813.914001,300.241773   C815.583679,305.763410 819.394287,306.700330 824.409363,302.231641  z" />
<ns0:path fill="#FFFFFF" opacity="0.25" stroke="none" d=" M561.283325,283.925550   C565.890442,279.390119 571.042175,278.877149 576.310059,281.182905   C581.505859,283.457105 582.956726,288.317823 583.289734,293.538557   C583.524658,297.221204 583.337524,300.867841 581.566223,304.254499   C579.149353,308.875349 575.287903,310.992933 570.151978,310.829359   C564.953125,310.663831 561.173096,308.129621 559.379028,303.309247   C556.945129,296.769758 556.980530,290.271497 561.283325,283.925550  M565.422546,301.430524   C566.566345,304.262769 568.639709,305.636762 571.689941,305.163526   C574.843323,304.674329 576.038391,302.208600 576.525024,299.515058   C577.087280,296.403211 577.151001,293.180799 576.333008,290.099561   C575.583862,287.277692 573.594543,285.391553 570.581116,285.433149   C567.813660,285.471357 566.070312,287.177686 565.246643,289.880964   C564.145691,293.494184 564.034729,297.070325 565.422546,301.430524  z" />
<ns0:path fill="#FFFFFF" opacity="0.25" stroke="none" d=" M682.658325,298.276258   C682.670410,295.669538 682.538696,293.498243 682.752930,291.361616   C683.471680,284.193799 688.373779,279.843183 695.375427,280.009016   C702.349365,280.174116 706.963196,284.786878 707.326721,292.014173   C707.418274,293.834699 707.430115,295.664228 707.373291,297.486341   C707.117615,305.685987 702.857971,310.502393 695.636841,310.813215   C688.252808,311.131025 683.905823,307.078474 682.658325,298.276258  M692.007263,286.362409   C688.855286,289.980695 687.834412,298.100599 690.038818,302.151990   C691.156311,304.205884 692.793030,305.403913 695.246887,305.245588   C697.859741,305.076978 699.693665,303.717145 700.414124,301.294477   C701.408508,297.950483 701.848022,294.544965 700.920471,291.023359   C699.705811,286.411664 697.641418,285.060956 692.007263,286.362409  z" />
<ns0:path fill="#FFFFFF" opacity="0.25" stroke="none" d=" M511.094971,280.252302   C514.235168,280.257825 516.896729,280.244642 519.557800,280.276655   C521.424805,280.299116 523.406799,280.258131 523.483826,282.916364   C523.570435,285.909131 521.385376,285.813886 519.347595,285.863386   C517.851135,285.899732 516.354065,285.925062 514.857239,285.923688   C512.681824,285.921705 511.427734,286.826734 511.339600,289.154310   C511.245148,291.648664 512.650452,292.285169 514.794495,292.263410   C516.455444,292.246534 518.120605,292.303266 519.778320,292.412153   C521.359802,292.515974 522.159119,293.450269 522.160278,295.025983   C522.161438,296.584547 521.393372,297.535261 519.818604,297.703931   C518.828918,297.809949 517.828491,297.821943 516.832275,297.861280   C511.170380,298.084913 511.080780,298.189588 511.642944,304.249921   C514.425049,305.543195 517.453674,304.269788 520.343567,304.749067   C522.179871,305.053602 524.140869,305.125867 524.093018,307.738904   C524.046143,310.297620 522.195435,310.592725 520.281921,310.622388   C516.623657,310.679182 512.963501,310.600324 509.305023,310.648481   C505.868011,310.693708 504.655548,308.948652 504.716217,305.659864   C504.835815,299.174909 504.966187,292.676984 504.683685,286.202283   C504.487854,281.713422 505.945435,279.556989 511.094971,280.252302  z" />
<ns0:path fill="#FFFFFF" opacity="0.25" stroke="none" d=" M660.892334,301.888685   C661.970764,303.685895 663.119568,304.897657 664.903992,305.140394   C667.082092,305.436628 669.496521,305.670728 670.443481,303.082868   C671.448608,300.336103 669.390869,299.216566 667.265747,298.359113   C664.955078,297.426771 662.534058,296.710523 660.341125,295.557630   C657.233093,293.923597 655.947083,291.086683 656.292297,287.630537   C656.661987,283.929243 658.766785,281.537000 662.307495,280.459882   C667.281128,278.946821 672.899170,280.371198 675.019836,283.738996   C675.888245,285.117963 677.044800,286.801649 675.283081,288.176404   C673.890320,289.263257 672.207031,289.173536 670.765625,287.791212   C669.939270,286.998731 669.034851,286.218824 668.028809,285.696882   C665.938110,284.612134 663.938049,285.099103 662.904846,287.151746   C661.786194,289.374128 663.592041,290.514539 665.316406,291.276990   C667.744629,292.350629 670.382263,293.004224 672.701233,294.260297   C677.735962,296.987348 678.693176,303.174970 674.937988,307.427137   C670.799438,312.113416 661.373474,312.031721 657.471802,307.223859   C656.317566,305.801557 655.001709,304.101362 656.164307,302.279310   C657.177368,300.691694 659.007324,300.896985 660.892334,301.888685  z" />
<ns0:path fill="#FFFFFF" opacity="0.25" stroke="none" d=" M883.250488,303.803541   C884.586182,300.470594 882.743896,299.274091 880.340271,298.354505   C878.017639,297.465894 875.561157,296.766004 873.459656,295.493787   C868.946960,292.761793 868.189331,286.835157 871.614014,282.986738   C875.439270,278.688184 884.887268,278.961133 888.162476,283.488325   C889.165466,284.874860 890.154419,286.616498 888.796082,288.009290   C887.392822,289.448286 885.419556,289.286817 883.949768,287.713972   C883.025085,286.724409 882.127136,285.745008 880.803650,285.360486   C878.604614,284.721601 876.654358,285.353315 875.779602,287.423749   C874.948547,289.390790 876.613464,290.500501 878.163513,291.174940   C880.139160,292.034528 882.251282,292.574537 884.260071,293.365339   C888.446350,295.013349 890.630005,298.042249 890.293213,302.634534   C889.963074,307.136976 887.054138,309.362531 883.055054,310.450422   C878.058472,311.809675 872.419495,310.002088 870.100891,306.301679   C869.242432,304.931653 867.930298,303.143323 869.687561,301.871503   C871.290649,300.711286 873.451843,300.335187 874.906006,302.599714   C877.078979,305.983686 879.869385,306.048902 883.250488,303.803541  z" />
<ns0:path fill="#FFFFFF" opacity="0.25" stroke="none" d=" M737.701294,292.545118   C737.707397,289.562787 737.702087,287.070295 737.721802,284.578046   C737.738281,282.489606 737.845703,280.471815 740.725647,280.406537   C743.515198,280.343275 744.008728,282.222089 744.041077,284.365674   C744.111267,289.017133 744.049377,293.670576 744.115967,298.322126   C744.162109,301.548292 744.130920,305.038709 748.656616,305.182996   C753.362122,305.333021 754.446045,301.962751 754.591370,298.209943   C754.771240,293.563886 754.651550,288.906599 754.683838,284.254285   C754.697021,282.352247 754.796936,280.473493 757.429321,280.428693   C760.012146,280.384717 760.338806,282.143781 760.343018,284.113080   C760.354858,289.596143 760.476990,295.083600 760.302490,300.561231   C760.098755,306.954816 756.366455,310.471601 749.819214,310.803022   C743.091064,311.143629 738.622192,307.780256 737.866272,301.499982   C737.530762,298.712110 737.739197,295.858716 737.701294,292.545118  z" />
<ns0:path fill="#FFFFFF" opacity="0.25" stroke="none" d=" M535.640625,294.734785   C535.869202,296.934156 536.038818,298.763807 536.439392,300.541425   C536.947632,302.796491 538.259338,304.484174 540.606018,305.053358   C542.973328,305.627485 544.996704,304.850660 546.188843,302.768720   C547.622009,300.265851 549.762634,299.275281 551.914062,300.957563   C554.250122,302.784223 552.185669,304.967847 551.035950,306.612928   C546.857422,312.591810 536.216370,312.191724 532.023254,306.004133   C528.295532,300.503309 528.216553,290.663557 531.797119,285.074110   C534.428345,280.966535 538.331909,279.588575 542.940552,279.890027   C547.031006,280.157606 550.307068,281.938489 552.090454,285.800733   C552.685425,287.089246 553.617554,288.690443 551.731995,289.731733   C550.243530,290.553754 548.364014,291.197767 547.261719,289.393384   C545.492554,286.497358 543.358765,284.860456 539.882324,285.992658   C536.261169,287.172040 536.387451,290.456556 535.867920,293.360548   C535.809265,293.688184 535.745605,294.014875 535.640625,294.734785  z" />
<ns0:path fill="#FFFFFF" opacity="0.25" stroke="none" d=" M624.864807,299.460065   C623.749573,304.423444 625.899963,305.466108 630.167969,305.288343   C632.586365,305.187604 637.121338,302.888685 637.031006,307.948102   C636.953796,312.274000 632.701660,310.592603 630.273499,310.595045   C616.146790,310.609205 618.945435,311.628217 618.677124,298.947950   C618.575256,294.131238 618.751526,289.308607 618.644409,284.492109   C618.579956,281.594343 619.641663,280.165784 622.682556,280.260175   C626.500793,280.378766 630.325317,280.281293 634.145996,280.343641   C635.823975,280.371015 637.051331,281.084028 637.083191,282.988599   C637.114868,284.880109 635.971924,285.654676 634.255310,285.721754   C632.097534,285.806074 629.936890,285.836957 627.777222,285.847394   C625.514160,285.858320 624.482666,286.947858 624.446838,289.220289   C624.407410,291.717573 625.819153,292.325544 627.949097,292.289136   C629.609131,292.260755 631.271912,292.312299 632.931763,292.374250   C634.473999,292.431837 635.418945,293.179609 635.494629,294.806287   C635.578186,296.601789 634.753662,297.474256 632.936646,297.791517   C630.275574,298.256147 627.261108,296.655836 624.864807,299.460065  z" />
<ns0:path fill="#FFFFFF" opacity="0.25" stroke="none" d=" M713.745239,332.775556   C716.900208,331.726789 718.752380,332.729108 720.146484,335.337385   C726.428528,347.090955 726.426331,358.754713 719.969849,370.423322   C718.354370,373.342969 716.400879,374.781324 712.790527,371.823041   C715.968872,365.074354 718.274048,357.975385 717.837158,350.131605   C717.497742,344.037153 714.326416,338.845685 713.745239,332.775556  z" />
<ns0:path fill="#FFFFFF" opacity="0.25" stroke="none" d=" M766.252319,284.240705   C765.647583,281.103437 767.183716,280.297986 769.555298,280.297925   C774.541626,280.297773 779.528015,280.269849 784.514160,280.298505   C786.232971,280.308393 787.961609,280.468183 788.105652,282.781965   C788.266724,285.368482 786.494751,285.892042 784.526184,285.765089   C780.756653,285.522016 780.147705,287.638166 780.223755,290.753736   C780.349487,295.903211 780.248047,301.058332 780.231262,306.211042   C780.224487,308.292829 780.119690,310.381940 777.315063,310.515638   C774.321350,310.658308 773.787109,308.679944 773.799927,306.255994   C773.825378,301.435804 773.657104,296.608289 773.872681,291.797437   C774.048401,287.876630 773.281799,285.235975 768.554504,285.678998   C767.882080,285.741956 767.134644,285.003705 766.252319,284.240705  z" />
<ns0:path fill="#FFFFFF" opacity="0.25" stroke="none" d=" M595.432861,358.750165   C593.832153,350.105848 595.947632,342.565198 599.707886,335.348768   C601.253967,332.381391 603.496948,331.485853 607.294983,333.377119   C600.130981,346.094800 599.483887,358.933637 606.920105,371.553724   C603.777466,374.403150 601.670044,373.969587 599.871460,370.748914   C597.833252,367.099164 596.277039,363.292310 595.432861,358.750165  z" />
<ns0:path fill="#FFFFFF" opacity="0.25" stroke="none" d=" M480.710724,296.555799   C480.719971,292.072706 480.726257,288.086439 480.741211,284.100202   C480.748688,282.113203 481.114655,280.443952 483.647430,280.352674   C486.265045,280.258375 487.192535,281.665937 487.193726,284.039869   C487.196350,289.188673 487.507416,294.359510 487.129211,299.479719   C486.796356,303.985639 488.583862,305.267316 492.800293,305.246290   C494.986877,305.235395 499.008331,303.306989 499.056000,307.646253   C499.105225,312.129438 494.971924,310.568860 492.534546,310.592634   C478.461151,310.729810 481.012024,311.413495 480.716614,299.045789   C480.700745,298.381727 480.712463,297.717054 480.710724,296.555799  z" />
<ns0:path fill="#FFFFFF" opacity="0.25" stroke="none" d=" M714.660889,292.578504   C714.667542,289.418348 714.670959,286.753889 714.682739,284.089521   C714.691406,282.120710 714.940491,280.400159 717.560852,280.370557   C720.045288,280.342512 720.763855,281.935834 720.800049,283.909925   C720.906921,289.735792 720.864380,295.564283 720.898193,301.391675   C720.903870,302.368635 720.998718,303.345045 721.051636,304.307508   C723.554932,305.843519 726.049561,304.851819 728.476074,304.831403   C730.552979,304.813886 732.734131,304.828474 732.770325,307.689619   C732.801819,310.185987 730.883728,310.495100 728.946777,310.602430   C728.614380,310.620862 728.280884,310.634565 727.948120,310.630781   C711.709717,310.446119 715.064270,312.325208 714.666626,298.069990   C714.620239,296.405988 714.660889,294.739576 714.660889,292.578504  z" />
<ns0:path fill="#FFFFFF" opacity="0.25" stroke="none" d=" M793.778809,291.591047   C793.809998,288.444074 793.794800,285.790296 793.891418,283.140577   C793.955688,281.381177 794.938538,280.440412 796.745239,280.385969   C798.677124,280.327802 800.109863,281.034742 800.126160,283.120435   C800.190735,291.408185 800.184998,299.696973 800.126282,307.984815   C800.113037,309.852430 798.768311,310.503187 797.075195,310.496198   C794.776550,310.486677 793.827271,309.169752 793.819397,307.009534   C793.801392,302.035016 793.792480,297.060499 793.778809,291.591047  z" />
<ns0:path fill="#FFFFFF" opacity="0.25" stroke="none" d=" M466.661041,298.541669   C466.663940,293.559125 466.643494,289.071546 466.681519,284.584516   C466.698456,282.584150 466.530945,280.432600 469.534637,280.347669   C472.306244,280.269330 472.914429,282.054029 472.922180,284.227521   C472.948822,291.705396 472.924957,299.183820 472.855011,306.661451   C472.834137,308.893293 472.025085,310.618299 469.346558,310.454236   C466.793030,310.297895 466.667328,308.450452 466.675110,306.515760   C466.685150,304.022901 466.667358,301.529859 466.661041,298.541669  z" />
</svg>